<svg width="176" height="84" viewBox="0 0 176 84" fill="none" xmlns="http://www.w3.org/2000/svg">
<g clip-path="url(#clip0_123_677)">
<rect width="176" height="84" fill="white"/>
<path d="M58.04 15.98H62.64C67.55 15.98 68.5 18.56 68.5 22.3V30.64C68.5 33.93 67.92 37.46 62.58 37.46H58.05V15.98H58.04ZM61.12 35H62.36C64.88 35 65.36 33.57 65.36 31.1V22.04C65.36 19.85 64.94 18.48 62.36 18.48H61.12V35Z" fill="#1D1D1B"/>
<path d="M71.1602 20.93H74.2402V37.46H71.1602V20.93ZM71.1802 15.04H74.2602V18.49H71.1802V15.04Z" fill="#1D1D1B"/>
<path d="M86.7096 36.79C86.7096 40.33 86.3196 43.29 81.5496 43.29C77.5596 43.29 76.8596 40.88 76.8596 39.07V39H79.9496V39.08C79.9496 39.68 80.1896 40.89 81.7196 40.89C83.3296 40.89 83.6396 39.75 83.6396 37.54V35.6C83.1796 36.6 82.2196 37.2 80.6996 37.2C77.6996 37.2 76.8496 35.07 76.8496 32.07V25.66C76.8496 23.14 77.9396 20.68 81.0596 20.68C82.8996 20.68 83.6796 21.51 83.9596 22.39C83.9596 21.9 84.0496 21.24 84.1096 20.94H86.7796C86.7496 21.92 86.7096 23.33 86.7096 25.16V36.79V36.79ZM79.9396 25.82V31.84C79.9396 33.7 80.4296 34.63 81.6496 34.63C83.3596 34.63 83.6496 33.2 83.6496 31.09V26.23C83.6496 24.62 83.4696 23.27 81.8596 23.27C80.5596 23.28 79.9396 24.11 79.9396 25.82Z" fill="#1D1D1B"/>
<path d="M89.7803 20.93H92.8603V37.46H89.7803V20.93ZM89.8003 15.04H92.8803V18.49H89.8003V15.04Z" fill="#1D1D1B"/>
<path d="M94.3398 20.93H96.2798V16.92H99.3498V20.93H101.68V23.47H99.3498V33.8C99.3498 34.61 99.4798 35.31 100.57 35.31C100.89 35.31 101.38 35.28 101.59 35.21V37.4C101.02 37.64 100.18 37.7 99.5398 37.7C97.5398 37.7 96.2798 37.03 96.2798 34.31V23.47H94.3398V20.93V20.93Z" fill="#1D1D1B"/>
<path d="M112.26 34.3C112.26 35.38 112.27 36.9 112.33 37.47H109.5C109.42 37.12 109.31 36.46 109.29 36.2C108.7 37.3 107.69 37.72 106.39 37.72C103.78 37.72 102.73 35.49 102.73 32.98V32.69C102.73 28.76 105.47 27.57 108.64 27.57C108.8 27.57 108.98 27.57 109.2 27.57V25.25C109.2 23.87 108.99 23.05 107.79 23.05C106.61 23.05 106.31 23.9 106.31 25.04V25.38H103.28V25.08C103.28 22.72 104.26 20.67 107.89 20.67C111.16 20.67 112.26 22.45 112.26 25.02V34.3ZM109.25 29.79C109.07 29.79 108.7 29.79 108.55 29.79C106.78 29.79 105.67 30.45 105.67 32.64V32.91C105.67 34.2 106.14 35.19 107.35 35.19C108.71 35.19 109.25 34.24 109.25 31.91V29.79V29.79Z" fill="#1D1D1B"/>
<path d="M115.37 37.47V15.04H118.45V37.47H115.37Z" fill="#1D1D1B"/>
<path fill-rule="evenodd" clip-rule="evenodd" d="M47.9799 53.86L33.6699 62.06L47.9799 70.26V53.86Z" fill="#366FB2"/>
<path fill-rule="evenodd" clip-rule="evenodd" d="M33.6602 78.45L47.9802 70.26L33.6602 62.06V78.45Z" fill="#3679BD"/>
<path fill-rule="evenodd" clip-rule="evenodd" d="M33.6699 45.66L47.9799 37.47L33.6699 29.27V45.66Z" fill="#23346B"/>
<path fill-rule="evenodd" clip-rule="evenodd" d="M19.3506 37.47L33.6706 45.67V29.27L19.3506 37.47Z" fill="#233A72"/>
<path fill-rule="evenodd" clip-rule="evenodd" d="M33.6602 29.27L47.9802 37.47V21.08L33.6602 29.27Z" fill="#272D63"/>
<path fill-rule="evenodd" clip-rule="evenodd" d="M33.6699 29.27L47.9799 21.08L33.6699 12.88V29.27Z" fill="#28285B"/>
<path fill-rule="evenodd" clip-rule="evenodd" d="M33.6602 12.88L47.9802 21.08V4.67999L33.6602 12.88Z" fill="#272251"/>
<path fill-rule="evenodd" clip-rule="evenodd" d="M19.3506 53.87L33.6706 45.67L19.3506 37.47V53.87Z" fill="#284380"/>
<path fill-rule="evenodd" clip-rule="evenodd" d="M5.03027 45.67L19.3503 53.87V37.47L5.03027 45.67Z" fill="#2B4C8B"/>
<path fill-rule="evenodd" clip-rule="evenodd" d="M5.03027 62.06L19.3503 53.87L5.03027 45.67V62.06Z" fill="#2A5595"/>
<path fill-rule="evenodd" clip-rule="evenodd" d="M33.6706 62.07L19.3506 70.27L33.6706 78.46V62.07Z" fill="#366FB2"/>
<path fill-rule="evenodd" clip-rule="evenodd" d="M19.3503 53.86L5.03027 62.06L19.3503 70.26V53.86Z" fill="#315F9D"/>
<path fill-rule="evenodd" clip-rule="evenodd" d="M33.6706 62.06L19.3506 53.86V70.25L33.6706 62.06Z" fill="#3466A8"/>
<path d="M73.59 61.71H64.96V70.26H73.59V61.71Z" fill="#315F9D"/>
<path fill-rule="evenodd" clip-rule="evenodd" d="M64.96 70.26H73.58V61.71L64.96 70.26Z" fill="#2A5595"/>
<path d="M56.4302 44.25H52.2002V48.44H56.4302V44.25Z" fill="#3679BD"/>
<path fill-rule="evenodd" clip-rule="evenodd" d="M52.2002 48.44H56.4302V44.25L52.2002 48.44Z" fill="#366FB2"/>
<path d="M61.1003 55.29H53.8203V62.51H61.1003V55.29Z" fill="#3466A8"/>
<path fill-rule="evenodd" clip-rule="evenodd" d="M53.8203 62.51H61.1003V55.29L53.8203 62.51Z" fill="#315F9D"/>
<path d="M68.8904 47.63H64.1504V52.33H68.8904V47.63Z" fill="#366FB2"/>
<path fill-rule="evenodd" clip-rule="evenodd" d="M64.1504 52.33H68.8904V47.63L64.1504 52.33Z" fill="#3466A8"/>
<path d="M82.2597 64.04V65.33C82.2597 67.11 82.8697 68.08 84.3297 68.08C85.8197 68.08 86.2997 66.9 86.2997 65.1C86.2997 62.7 85.7397 61.88 83.2997 60.08C80.8397 58.27 79.5497 57.13 79.5497 53.96C79.5497 51.17 80.4497 48.42 84.3597 48.43C88.2497 48.44 89.0097 50.97 89.0097 53.47V54.55H85.9597V53.54C85.9597 51.92 85.6497 50.91 84.2997 50.91C82.9697 50.91 82.6197 52 82.6197 53.53C82.6197 55.25 82.9797 56 85.0297 57.43C88.3597 59.76 89.3997 61.08 89.3997 64.67C89.3997 67.71 88.3497 70.54 84.2397 70.54C80.2197 70.54 79.1797 68.12 79.1797 65.29V64.03H82.2597V64.04Z" fill="#1D1D1B"/>
<path d="M101.04 58.64V65.23C101.04 68.79 99.1902 70.52 96.0602 70.52C92.8602 70.52 91.1602 68.78 91.1602 65.28V58.54C91.1602 55.13 93.1702 53.47 96.1602 53.47C99.2702 53.46 101.04 55.29 101.04 58.64ZM94.2602 58.5V65.38C94.2602 66.91 94.7801 67.96 96.1301 67.96C97.3901 67.96 97.9602 67.12 97.9602 65.34V58.49C97.9602 57.07 97.5102 56.04 96.1202 56.04C94.8202 56.02 94.2602 56.89 94.2602 58.5Z" fill="#1D1D1B"/>
<path d="M103.62 70.25V47.83H106.7V70.26H103.62V70.25Z" fill="#1D1D1B"/>
<path d="M119.5 65.58C119.5 67.89 119.5 69.42 119.53 70.26H116.59C116.53 69.93 116.47 69.13 116.47 68.63C115.88 70.1 114.7 70.52 113.23 70.52C111.67 70.52 109.75 69.87 109.75 66.25V53.72H112.83V65.49C112.83 67.19 113.34 67.92 114.5 67.92C115.69 67.92 116.42 67.23 116.42 64.66V53.72H119.5V65.58Z" fill="#1D1D1B"/>
<path d="M120.96 53.72H122.9V49.71H125.97V53.72H128.3V56.26H125.97V66.59C125.97 67.4 126.1 68.1 127.19 68.1C127.51 68.1 128 68.07 128.21 68V70.19C127.64 70.43 126.8 70.49 126.16 70.49C124.16 70.49 122.9 69.82 122.9 67.1V56.26H120.96V53.72V53.72Z" fill="#1D1D1B"/>
<path d="M130.04 53.72H133.12V70.25H130.04V53.72ZM130.06 47.83H133.14V51.28H130.06V47.83Z" fill="#1D1D1B"/>
<path d="M145.6 58.64V65.23C145.6 68.79 143.75 70.52 140.62 70.52C137.42 70.52 135.72 68.78 135.72 65.28V58.54C135.72 55.13 137.73 53.47 140.72 53.47C143.83 53.46 145.6 55.29 145.6 58.64ZM138.82 58.5V65.38C138.82 66.91 139.34 67.96 140.69 67.96C141.95 67.96 142.52 67.12 142.52 65.34V58.49C142.52 57.07 142.07 56.04 140.68 56.04C139.38 56.02 138.82 56.89 138.82 58.5Z" fill="#1D1D1B"/>
<path d="M148.18 58.79C148.18 55.45 148.18 54.5 148.14 53.72H151.08C151.14 54.1 151.2 54.71 151.2 55.29C151.72 54.23 152.7 53.47 154.45 53.47C156.51 53.47 158.02 54.61 158.02 57.7V70.26H154.94V58.24C154.94 56.7 154.38 56.06 153.28 56.06C151.93 56.06 151.26 56.71 151.26 59.32V70.25H148.18V58.79V58.79Z" fill="#1D1D1B"/>
<path d="M163.23 65.19V65.93C163.23 67.19 163.69 68.06 164.87 68.06C165.99 68.06 166.45 67.41 166.45 66.14C166.45 64.85 166.05 64.1 163.97 62.83C161.57 61.37 160.43 60.19 160.43 57.85C160.43 55.2 161.89 53.46 164.89 53.46C168.14 53.46 169.32 55.24 169.32 58.04V58.74H166.34V57.76C166.34 56.5 165.92 55.9 164.9 55.9C163.9 55.9 163.5 56.56 163.5 57.6C163.5 58.68 163.87 59.16 165.54 60.18C168.42 61.92 169.57 63.08 169.57 65.79C169.57 68.88 167.98 70.5 164.78 70.5C161.02 70.5 160.13 68.24 160.13 65.92V65.18H163.23V65.19Z" fill="#1D1D1B"/>
</g>
<defs>
<clipPath id="clip0_123_677">
<rect width="176" height="84" fill="white"/>
</clipPath>
</defs>
</svg>
